session1_knee.mot
version=1
nRows=277
nColumns=2
inDegrees=yes
endheader
time	knee_angle_r
0.006430	0.177193
0.007170	0.181645
0.009176	0.193955
0.012312	0.213312
0.015656	0.219272
0.017734	0.222500
0.027644	0.233440
0.029595	0.228971
0.033178	0.221275
0.035286	0.206213
0.039512	0.190379
0.041607	0.181434
0.045710	0.162137
0.047777	0.149610
0.052914	0.132295
0.053946	0.122983
0.057685	0.112656
0.059866	0.111269
0.063116	0.106914
0.066541	0.091193
0.068581	0.086441
0.071531	0.076984
0.074984	0.067137
0.078064	0.065515
0.081287	0.061567
0.084650	0.056751
0.086648	0.061044
0.091003	0.074254
0.093056	0.079516
0.096453	0.084050
0.099997	0.099215
0.101977	0.103420
0.105020	0.111628
0.108104	0.120617
0.111155	0.126834
0.114627	0.143661
0.118005	0.155156
0.120166	0.164504
0.130050	0.208569
0.132124	0.188932
0.134236	0.176680
0.135476	0.162632
0.139948	0.167929
0.140946	0.163659
0.144075	0.154155
0.147232	0.144322
0.150243	0.129251
0.153374	0.117922
0.155936	0.107833
0.159311	0.093021
0.163004	0.078274
0.165006	0.070683
0.168414	0.058939
0.171465	0.046340
0.174497	0.038239
0.176805	0.033978
0.179832	0.025729
0.183293	0.015986
0.186601	0.015955
0.188614	0.017176
0.191956	0.016266
0.195387	0.009829
0.197747	0.013987
0.200795	0.010713
0.203892	0.007284
0.208645	0.010698
0.210850	0.010698
0.212825	0.018215
0.216357	0.027797
0.220702	0.034761
0.223117	0.037058
0.231664	0.047479
0.232701	0.070116
0.234328	0.089119
0.236286	0.097341
0.241935	0.116778
0.243998	0.129089
0.245983	0.133300
0.250448	0.149421
0.252572	0.154195
0.255668	0.157426
0.259054	0.156654
0.262135	0.144545
0.265242	0.142297
0.267406	0.139253
0.271157	0.137329
0.273128	0.138079
0.277441	0.129923
0.279471	0.123389
0.282977	0.113111
0.286556	0.097318
0.288606	0.096332
0.291914	0.090270
0.295225	0.083980
0.298600	0.082488
0.301695	0.086856
0.304229	0.089620
0.310367	0.090837
0.311438	0.093841
0.313847	0.101451
0.316813	0.107078
0.319242	0.113128
0.322268	0.126322
0.325345	0.132673
0.334196	0.138781
0.342110	0.164648
0.344255	0.170840
0.346342	0.177386
0.349525	0.186902
0.352542	0.191627
0.356331	0.192729
0.358329	0.197600
0.361520	0.198017
0.364849	0.198243
0.368301	0.207048
0.370301	0.208784
0.373602	0.209150
0.377044	0.210288
0.379506	0.219770
0.383063	0.222339
0.386425	0.225144
0.389599	0.229297
0.392134	0.230395
0.395210	0.234450
0.397691	0.236844
0.400785	0.240194
0.404308	0.250053
0.407555	0.266299
0.409911	0.275999
0.412998	0.284368
0.416468	0.281267
0.418812	0.299655
0.422369	0.318309
0.425338	0.335337
0.427820	0.348655
0.438235	0.398920
0.439468	0.393257
0.442463	0.421683
0.445811	0.436807
0.448966	0.452537
0.451465	0.463967
0.455015	0.473271
0.458432	0.482748
0.460771	0.483440
0.463780	0.486898
0.466840	0.481148
0.470233	0.471915
0.472678	0.456010
0.475772	0.444077
0.478818	0.425881
0.481895	0.412378
0.485102	0.387622
0.488249	0.366228
0.490755	0.347965
0.493839	0.335319
0.496898	0.313473
0.500584	0.297738
0.503741	0.288905
0.507830	0.278706
0.510214	0.278555
0.512288	0.282563
0.515876	0.277710
0.518982	0.283021
0.522215	0.298056
0.525152	0.319812
0.531609	0.368537
0.541863	0.438549
0.543126	0.413128
0.546469	0.436326
0.549212	0.447828
0.551649	0.462545
0.555604	0.478273
0.558805	0.495706
0.561866	0.516043
0.563788	0.537337
0.566396	0.563174
0.570350	0.581342
0.574017	0.599464
0.577073	0.615046
0.579281	0.628805
0.582541	0.656527
0.585077	0.649320
0.588319	0.649915
0.591925	0.646778
0.594873	0.634403
0.597148	0.621170
0.600842	0.614674
0.603274	0.599129
0.605865	0.589164
0.609614	0.577672
0.615008	0.557281
0.618862	0.545702
0.621275	0.541231
0.625363	0.541475
0.630269	0.544066
0.631446	0.555231
0.634335	0.575616
0.642388	0.631281
0.645357	0.649386
0.648937	0.672280
0.651534	0.691181
0.653884	0.716515
0.657858	0.734053
0.660015	0.756330
0.663927	0.779238
0.666725	0.801295
0.669931	0.825857
0.672020	0.848061
0.675714	0.878418
0.678630	0.903713
0.681251	0.926672
0.683983	0.953072
0.686908	0.965102
0.691248	0.980080
0.694103	0.993873
0.696560	1.009419
0.699419	1.018089
0.701834	1.035510
0.709660	1.066877
0.713203	1.084577
0.736339	1.133511
0.751282	1.163353
0.751990	1.273870
0.766705	1.695918
0.767639	1.710756
0.770928	1.737293
0.774576	1.762933
0.775730	1.769796
0.779475	1.810910
0.782822	1.830431
0.786853	1.863523
0.788050	1.859942
0.793100	1.885624
0.794289	1.879526
0.801295	1.879285
0.816859	1.968898
0.817856	1.989635
0.822883	2.013982
0.824322	2.038205
0.827744	2.070378
0.831650	2.110447
0.834528	2.162361
0.837398	2.208401
0.847829	2.255096
0.851512	2.414777
0.852734	2.481983
0.855632	2.540580
0.858097	2.583179
0.861482	2.639466
0.864026	2.703522
0.866627	2.766278
0.870462	2.818938
0.872763	2.872953
0.875365	2.920088
0.881114	2.989125
0.883783	2.998926
0.892021	3.090801
0.893453	3.143346
0.897669	3.182996
0.905435	3.235885
0.906118	3.253386
0.910907	3.370516
0.912149	3.393522
0.914997	3.432821
0.917936	3.483945
0.920240	3.523946
0.922842	3.552998
0.926551	3.632964
0.935194	3.772635
0.938904	3.838396
0.955000	4.211034
0.957684	4.280963
0.962010	4.367556
0.964852	4.473401
0.967844	4.600194
0.969771	4.740971
0.973205	4.867069
